<svg xmlns="http://www.w3.org/2000/svg" viewBox="0 0 500 500">
  <defs>
    <pattern id="pattern-0" x="0" y="0" width="20" height="20" patternUnits="userSpaceOnUse" viewBox="0 0 100 100">
      <path d="M 0 0 L 50 0 L 50 100 L 0 100 Z" style="fill: black;"/>
    </pattern>
    <linearGradient id="gradient-1" gradientUnits="userSpaceOnUse" x1="259.91" y1="94.35" x2="259.91" y2="417.306">
      <stop offset="0" style="stop-color: rgba(37, 43, 218, 1)"/>
      <stop offset="1" style="stop-color: rgba(22, 26, 131, 1)"/>
    </linearGradient>
  </defs>
  <path d="M -160.4 202.781" style="stroke: rgb(130, 129, 129); fill: rgb(177, 177, 177);"/>
  <path d="M 442.375 447.622 L 99.598 125.831 L 142.736 86.19 L 442.375 447.622 Z" style="stroke: rgb(130, 129, 129); fill: rgb(177, 177, 177);"/>
  <ellipse cx="96.683" cy="79.777" rx="48.385" ry="46.053" style="fill: rgb(179, 177, 177);"/>
  <ellipse cx="259.91" cy="255.828" rx="159.146" ry="161.478" style="fill: url(#gradient-1);"/>
  <path d="M -98.607 420.806 Z" style="stroke: black; fill: none;"/>
  <path d="M -137.082 419.64 Z" style="fill: none; stroke: rgb(57, 148, 101);"/>
  <path d="M 212.691 145.651 Z" style="stroke: black; fill: none;"/>
  <path d="M 212.691 145.651 Z" style="stroke: black; fill: none;"/>
  <path d="M 153.23 378.833 L 113.589 324.035 L 99.598 275.067 C 99.598 273.901 101.641 233.675 101.93 230.763 C 104.262 207.232 113.589 197.703 113.589 187.623 C 113.589 187.623 129.634 161.085 131.077 159.642 C 131.224 159.495 152.064 137.49 152.064 137.49 C 160.338 129.216 168.931 121.166 191.705 109.507 C 191.705 109.507 222.673 100.692 225.516 97.849 C 226.87 96.495 245.336 95.517 245.336 95.517 L 266.323 93.185 C 266.323 93.185 241.75 125.831 232.511 125.831 C 227.777 125.831 206.861 118.845 206.861 124.665 C 206.861 126.164 215.023 143.319 215.023 143.319 C 211.137 147.205 183.543 166.487 183.543 170.135 C 183.543 172.716 184.709 188.79 184.709 188.79 C 177.092 196.407 191.124 227.265 177.714 227.265 C 164.74 227.265 167.251 205.143 160.225 198.117 C 159.646 197.538 140.405 190.769 140.405 192.288 C 140.405 195.987 128.745 200.152 128.745 203.947 C 128.745 209.333 125.248 233.094 125.248 233.094 C 125.248 233.094 125.626 256.791 133.409 264.574 C 139.232 270.397 158.539 261.722 164.889 268.072 C 167.547 270.73 181.938 289.058 184.709 289.058 C 184.709 289.058 189.311 341.586 185.875 345.022 C 183.068 347.829 177.714 357.812 177.714 361.344 C 176.548 369.332 155.561 381.165 155.561 381.165 L 153.23 378.833 Z" style="stroke: black; fill: rgb(33, 134, 31);"/>
  <path d="M 365.425 376.501 C 365.425 376.501 365.221 361.957 365.425 361.344 C 370.9 344.919 359.595 329.308 359.595 314.708 C 359.595 314.708 323.452 283.962 323.452 277.399 C 323.452 276.233 315.129 226.18 329.282 219.103 C 347.274 210.107 368.776 200.449 388.743 200.449 C 390.885 200.449 410.895 200.449 410.895 200.449 C 410.895 198.117 416.725 234.26 416.725 234.26 C 416.725 233.094 419.057 273.377 419.057 277.399 C 419.057 291.574 411.224 307.383 400.402 327.533 C 400.402 327.533 395.833 342.419 385.246 355.515 C 376.267 366.621 364.259 375.335 364.259 375.335 L 365.425 376.501 Z" style="stroke: black; fill: rgb(33, 134, 31);"/>
  <path d="M 333.945 115.337 C 330.448 110.727 331.692 158.398 328.116 161.974 C 323.556 166.534 305.964 169.022 305.964 174.799 C 303.632 177.131 314.125 204.894 314.125 202.781 C 314.125 195.439 336.519 194.378 339.775 191.122 C 341.313 189.584 349.102 171.301 349.102 171.301 C 349.102 172.467 349.491 173.633 347.936 173.633 C 347.936 167.983 356.098 156.144 356.098 156.144 C 357.264 156.144 371.288 145.685 375.918 150.315 C 387.241 161.638 374.055 191.919 396.905 173.633 C 399.022 171.939 371.844 139.762 358.429 131.66 C 355.162 129.687 346.77 121.167 346.77 121.167 L 333.945 115.337 Z" style="stroke: black; fill: rgb(33, 134, 31);"/>
  <path d="M 287.31 116.504 C 294.305 124.907 293.545 141.394 302.466 150.315 C 305.407 153.256 319.955 156.3 319.955 147.983 C 319.955 138.228 297.802 113.005 297.802 113.005 C 297.802 113.005 295.47 113.006 295.47 113.006 L 287.31 116.504 Z" style="stroke: black; fill: rgb(33, 134, 31);"/>
</svg>
